Coordinates
version=1
nRows=17
nColumns=40
inDegrees=yes

Units are S.I. units (second, meters, Newtons, ...)
Angles are in degrees.

endheader
time	pelvis_tilt	pelvis_list	pelvis_rotation	pelvis_tx	pelvis_ty	pelvis_tz	hip_flexion_r	hip_adduction_r	hip_rotation_r	knee_angle_r	knee_angle_r_beta	ankle_angle_r	subtalar_angle_r	mtp_angle_r	hip_flexion_l	hip_adduction_l	hip_rotation_l	knee_angle_l	knee_angle_l_beta	ankle_angle_l	subtalar_angle_l	mtp_angle_l	lumbar_extension	lumbar_bending	lumbar_rotation	arm_flex_r	arm_add_r	arm_rot_r	elbow_flex_r	pro_sup_r	wrist_flex_r	wrist_dev_r	arm_flex_l	arm_add_l	arm_rot_l	elbow_flex_l	pro_sup_l	wrist_flex_l	wrist_dev_l
     13.57000000	     -3.22807472	     -5.84490810	      3.84897954	      0.90149289	      0.93098521	      0.46011144	      9.55880705	      5.62477631	    -16.11479804	     13.57170144	     13.57170144	     10.32250319	     -0.40308727	     -3.37545427	     36.21880817	    -10.98237084	      3.99510474	     62.58355777	     62.58355777	      3.76366597	    -17.76718265	      9.92866864	     -9.93720611	      5.78884006	      2.12309992	     24.66526514	    -20.97871020	      4.90363141	     72.48421828	     45.30091401	      0.00000000	      0.00000000	    -11.13127778	     -9.30230049	     -8.55372110	     28.37645986	     45.42257203	      0.00000000	      0.00000000
     13.58164286	     -3.42647820	     -5.81888946	      3.99002192	      0.89987815	      0.93089599	      0.46015817	      9.25092018	      5.65139602	    -16.15972733	     13.34121937	     13.34121937	     10.50262273	     -0.42524643	     -3.41521238	     37.05262807	    -10.90499003	      3.38313126	     59.40679076	     59.40679076	      4.37256033	    -18.13383903	     10.21705637	     -9.86563307	      5.88501762	      2.40928609	     25.74506059	    -20.85628046	      4.82656720	     73.04088576	     45.28960151	      0.00000000	      0.00000000	    -11.08383678	     -8.99592560	     -8.50778810	     28.33669758	     45.42165151	      0.00000000	      0.00000000
     13.59328571	     -3.57333896	     -5.74865845	      4.14949874	      0.89839254	      0.93089517	      0.46008802	      8.82443801	      5.64003895	    -16.21003251	     13.00241406	     13.00241406	     10.68724071	     -0.35360519	     -3.42024282	     37.53877590	    -10.71136517	      2.75061550	     55.82891641	     55.82891641	      4.89216621	    -18.35755979	     10.60763663	     -9.84539063	      5.97145608	      2.59520119	     26.81743023	    -20.63970924	      4.75298175	     73.76356169	     45.27269937	      0.00000000	      0.00000000	    -11.12541182	     -8.68366169	     -8.47298068	     28.37073951	     45.42047735	      0.00000000	      0.00000000
     13.60492857	     -3.62364813	     -5.68809169	      4.32348289	      0.89703653	      0.93098483	      0.45996866	      8.27041984	      5.64316702	    -16.34085967	     12.62750238	     12.62750238	     10.88843243	     -0.14947588	     -3.40557231	     37.67905558	    -10.43032956	      2.22032534	     51.95591532	     51.95591532	      5.35573734	    -18.41838847	     11.10581726	     -9.93492339	      6.05935831	      2.67620985	     27.79272527	    -20.31406766	      4.70582294	     74.66849125	     45.24861634	      0.00000000	      0.00000000	    -11.27438263	     -8.42264720	     -8.47169647	     28.51497852	     45.42491704	      0.00000000	      0.00000000
     13.61657143	     -3.76782683	     -5.61851570	      4.45847224	      0.89567332	      0.93081252	      0.45977544	      7.87734189	      5.60775936	    -16.45000569	     12.35560580	     12.35560580	     11.10924916	      0.02835117	     -3.41917800	     37.76077733	    -10.06345311	      1.76390149	     47.94417173	     47.94417173	      5.77318314	    -18.24490846	     11.59486117	     -9.92009931	      6.13026638	      2.85382986	     28.75635843	    -20.09328635	      4.64784703	     75.43172914	     45.22998381	      0.00000000	      0.00000000	    -11.34564188	     -8.12440741	     -8.46645826	     28.73963220	     45.42768693	      0.00000000	      0.00000000
     13.62821429	     -3.92298235	     -5.54900024	      4.59436867	      0.89436043	      0.93053737	      0.45944728	      7.53644991	      5.54972920	    -16.55429317	     12.16250104	     12.16250104	     11.31813486	      0.19297980	     -3.44247776	     37.72360623	     -9.60787708	      1.43463332	     43.84608786	     43.84608786	      6.16540144	    -17.80128607	     12.02381764	     -9.90646989	      6.24001457	      3.00575693	     29.66283643	    -19.86851629	      4.59982185	     76.12995040	     45.21296188	      0.00000000	      0.00000000	    -11.37385335	     -7.82451423	     -8.45216271	     29.01765508	     45.42840414	      0.00000000	      0.00000000
     13.63985714	     -3.96049242	     -5.49438873	      4.75585659	      0.89325935	      0.93027280	      0.45902195	      7.07786229	      5.45292308	    -17.06793971	     12.06309972	     12.06309972	     11.83179091	      1.02446970	     -3.27756070	     37.42714505	     -9.11240278	      1.26953705	     39.67261079	     39.67261079	      6.12319136	    -17.23738424	     11.56207507	    -10.01860916	      6.31048425	      2.97992908	     30.34021391	    -19.48437943	      4.57248559	     77.40088111	     45.17833566	      0.00000000	      0.00000000	    -11.88515126	     -7.59291989	     -8.55158199	     30.39619541	     45.45961358	      0.00000000	      0.00000000
     13.65150000	     -4.07770153	     -5.41988936	      4.86536969	      0.89214608	      0.92981292	      0.45861058	      6.76280922	      5.38564710	    -17.05424575	     12.01727723	     12.01727723	     12.13632457	      0.97161157	     -3.32175113	     37.20370240	     -8.63707507	      1.06121012	     35.69487470	     35.69487470	      6.51185913	    -15.98761803	     11.76889101	     -9.99629034	      6.37494559	      3.16383628	     31.11901579	    -19.21277111	      4.58617352	     77.82563300	     45.16814425	      0.00000000	      0.00000000	    -11.82638040	     -7.37216847	     -8.48880235	     30.62567657	     45.45665697	      0.00000000	      0.00000000
     13.66314286	     -4.17236591	     -5.38513820	      4.99161350	      0.89116456	      0.92927421	      0.45815967	      6.42342364	      5.35189832	    -17.11416336	     11.98849399	     11.98849399	     12.48793774	      1.01102192	     -3.37833939	     36.94134278	     -8.21383442	      0.87958627	     31.90169616	     31.90169616	      6.90275852	    -14.35870708	     11.81275740	     -9.98091197	      6.45320689	      3.22779324	     31.82131391	    -18.84474342	      4.63131673	     78.29283547	     45.15530499	      0.00000000	      0.00000000	    -11.77372676	     -7.14846957	     -8.41149886	     30.96311395	     45.45140289	      0.00000000	      0.00000000
     13.67478571	     -4.25971774	     -5.34431230	      5.11571107	      0.89028752	      0.92868595	      0.45765895	      6.08007305	      5.30854017	    -17.17092427	     11.98108668	     11.98108668	     12.83930446	      1.06717559	     -3.42706915	     36.67033352	     -7.82458884	      0.62538188	     28.37648249	     28.37648249	      7.27372947	    -12.41788211	     11.80176336	     -9.97856516	      6.51278250	      3.26253669	     32.42683026	    -18.44682348	      4.70612515	     78.71670066	     45.14249918	      0.00000000	      0.00000000	    -11.71382086	     -6.95205219	     -8.32605867	     31.35810535	     45.44462159	      0.00000000	      0.00000000
     13.68642857	     -4.33168885	     -5.33998176	      5.19799448	      0.88958722	      0.92799888	      0.45716282	      5.71181518	      5.30746303	    -17.22911140	     11.98918932	     11.98918932	     13.24491663	      1.10102371	     -3.47861116	     36.40099473	     -7.51347084	      0.33816626	     25.21933043	     25.21933043	      7.69617258	    -10.39673951	     11.74814240	     -9.93354277	      6.57389890	      3.27189161	     32.95551930	    -18.03620549	      4.80033949	     79.08934970	     45.13040632	      0.00000000	      0.00000000	    -11.61726731	     -6.77606274	     -8.22894591	     31.79718802	     45.43648211	      0.00000000	      0.00000000
     13.69807143	     -4.36554492	     -5.36842376	      5.31898994	      0.88903752	      0.92733112	      0.45657911	      5.31095088	      5.34017014	    -17.25426653	     12.02385583	     12.02385583	     13.62574562	      1.13444181	     -3.50656302	     36.17202655	     -7.25739490	     -0.04380386	     22.54461553	     22.54461553	      8.03765693	     -8.44999537	     11.70077769	     -9.91048876	      6.69771774	      3.27652108	     33.38073204	    -17.60026359	      4.92096348	     79.39881869	     45.11909557	      0.00000000	      0.00000000	    -11.49069273	     -6.64318177	     -8.12232499	     32.27063747	     45.42757314	      0.00000000	      0.00000000
     13.70971429	     -4.29254664	     -5.37932996	      5.39144632	      0.88879561	      0.92674317	      0.45607492	      4.76143196	      5.36554922	    -17.29373351	     12.08287737	     12.08287737	     14.36573462	      1.39693089	     -2.64714343	     35.85477522	     -7.14313994	     -0.90417970	     20.35896187	     20.35896187	      8.05914972	     -6.17771525	     10.38719528	    -10.00559379	      6.76175234	      2.96043451	     33.93766865	    -16.87323494	      5.40071700	     79.38613738	     45.11861074	      0.00000000	      0.00000000	    -12.23130477	     -6.78695622	     -7.10539902	     34.57825903	     45.33933286	      0.00000000	      0.00000000
     13.72135714	     -4.35530782	     -5.41205502	      5.45947633	      0.88848790	      0.92596521	      0.45548973	      4.36718878	      5.41211395	    -17.24632936	     12.10403396	     12.10403396	     14.73540341	      1.34795737	     -2.75219753	     35.74255095	     -6.91601555	     -1.24035321	     18.71159358	     18.71159358	      8.26649022	     -5.08530922	     10.53585194	     -9.90232408	      6.81393575	      3.02585445	     34.12665295	    -16.50213570	      5.52551563	     79.57052359	     45.11006881	      0.00000000	      0.00000000	    -11.89093744	     -6.69404963	     -7.00750742	     34.76255487	     45.33664289	      0.00000000	      0.00000000
     13.73300000	     -4.32159863	     -5.27746777	      5.47264662	      0.88855117	      0.92543211	      0.45485690	      3.78497654	      5.29400163	    -17.10408731	     12.05656806	     12.05656806	     15.14633204	      1.38129324	     -2.77252787	     35.45624206	     -6.65222838	     -1.93173203	     17.53679587	     17.53679587	      8.47757661	     -4.00353734	     10.55020478	     -9.91646554	      6.67982337	      3.01288330	     34.16407428	    -16.08409646	      5.67352027	     79.76691082	     45.10035603	      0.00000000	      0.00000000	    -11.68706210	     -6.70400572	     -6.87775281	     35.03413522	     45.33098211	      0.00000000	      0.00000000
     13.74464286	     -4.31164770	     -5.28915665	      5.47196065	      0.88872363	      0.92473526	      0.45436766	      3.23452811	      5.34378253	    -17.07730572	     12.00963405	     12.00963405	     15.55640069	      1.42779035	     -2.72346122	     35.32840807	     -6.56945410	     -2.52756062	     17.02151825	     17.02151825	      8.54698020	     -3.43775287	     10.45936766	     -9.82762683	      6.66206604	      3.07085226	     34.08916005	    -15.63404812	      5.85694673	     79.92383995	     45.09075633	      0.00000000	      0.00000000	    -11.39687012	     -6.70906097	     -6.72977544	     35.47270295	     45.32600093	      0.00000000	      0.00000000
     13.75628571	     -4.39910726	     -5.37467570	      5.50323581	      0.88907967	      0.92377062	      0.45379257	      2.83144688	      5.44493854	    -17.05281168	     12.04391709	     12.04391709	     15.88215992	      1.39924702	     -2.81762230	     35.33302344	     -6.51814725	     -2.75245293	     17.00061419	     17.00061419	      8.55310284	     -3.55254367	     10.46466142	     -9.55933218	      6.66800255	      3.07627590	     34.05497943	    -15.51662429	      5.90824080	     79.94702551	     45.08822068	      0.00000000	      0.00000000	    -11.22357637	     -6.70513790	     -6.71987678	     35.55967375	     45.32768135	      0.00000000	      0.00000000
